<svg xmlns="http://www.w3.org/2000/svg" width="100" height="100" viewBox="0 0 100 100">
  <defs>
    <linearGradient id="bgGradient" x1="0%" y1="0%" x2="100%" y2="100%">
      <stop offset="0%" stop-color="#e8f5e9" />
      <stop offset="100%" stop-color="#c8e6c9" />
    </linearGradient>
    <linearGradient id="cardBlue" x1="0%" y1="0%" x2="100%" y2="100%">
      <stop offset="0%" stop-color="#42a5f5" />
      <stop offset="100%" stop-color="#1565c0" />
    </linearGradient>
    <linearGradient id="cardRed" x1="0%" y1="0%" x2="100%" y2="100%">
      <stop offset="0%" stop-color="#ef5350" />
      <stop offset="100%" stop-color="#c62828" />
    </linearGradient>
    <linearGradient id="cardBack" x1="0%" y1="0%" x2="100%" y2="100%">
      <stop offset="0%" stop-color="#78909c" />
      <stop offset="100%" stop-color="#455a64" />
    </linearGradient>
    <filter id="shadow" x="-20%" y="-20%" width="140%" height="140%">
      <feGaussianBlur in="SourceAlpha" stdDeviation="2" />
      <feOffset dx="1" dy="2" result="offsetblur" />
      <feFlood flood-color="#000000" flood-opacity="0.3" />
      <feComposite in2="offsetblur" operator="in" />
      <feMerge>
        <feMergeNode />
        <feMergeNode in="SourceGraphic" />
      </feMerge>
    </filter>
    <pattern id="cardPattern" patternUnits="userSpaceOnUse" width="10" height="10">
      <rect width="10" height="10" fill="#607d8b" />
      <circle cx="5" cy="5" r="2" fill="#78909c" />
    </pattern>
  </defs>
  
  <!-- 游戏背景 -->
  <rect width="100" height="100" rx="10" fill="url(#bgGradient)" />
  
  <!-- 游戏标题 -->
  <text x="50" y="14" font-family="Arial" font-size="8" font-weight="bold" text-anchor="middle" fill="#2e7d32">MEMORY GAME</text>
  
  <!-- 游戏分数和时间 -->
  <text x="20" y="95" font-family="Arial" font-size="6" text-anchor="start" fill="#2e7d32">配对: 2/8</text>
  <text x="80" y="95" font-family="Arial" font-size="6" text-anchor="end" fill="#2e7d32">时间: 01:24</text>
  
  <!-- 卡片区域 -->
  <g filter="url(#shadow)">
    <!-- 第一行卡片 -->
    <rect x="15" y="20" width="30" height="30" rx="3" fill="url(#cardBlue)" />
    <circle cx="30" cy="35" r="10" fill="#ffffff" />
    <circle cx="30" cy="35" r="5" fill="url(#cardBlue)" />
    
    <rect x="55" y="20" width="30" height="30" rx="3" fill="url(#cardRed)" />
    <rect x="65" y="30" width="10" height="10" fill="#ffffff" />
    
    <!-- 第二行卡片 -->
    <rect x="15" y="60" width="30" height="30" rx="3" fill="url(#cardRed)" />
    <rect x="25" y="70" width="10" height="10" fill="#ffffff" />
    
    <rect x="55" y="60" width="30" height="30" rx="3" fill="url(#cardBack)" stroke="#455a64" stroke-width="1" />
    <rect x="58" y="63" width="24" height="24" rx="2" fill="url(#cardPattern)" />
    <text x="70" y="78" font-family="Arial" font-size="10" font-weight="bold" text-anchor="middle" fill="#ffffff">?</text>
  </g>
  
  <!-- 闪光效果 -->
  <circle cx="18" cy="23" r="2" fill="white" opacity="0.6" />
  <circle cx="58" cy="23" r="2" fill="white" opacity="0.6" />
  <circle cx="18" cy="63" r="2" fill="white" opacity="0.6" />
  <circle cx="58" cy="63" r="2" fill="white" opacity="0.6" />
</svg> 