<?xml version="1.0" encoding="UTF-8"?>
<svg width="100" height="100" viewBox="0 0 100 100" xmlns="http://www.w3.org/2000/svg">
  <!-- 背景 -->
  <rect width="100" height="100" rx="15" fill="#FF6D6D" />
  
  <!-- 卡片网格 -->
  <g transform="translate(15, 15)">
    <!-- 第一行 -->
    <rect x="0" y="0" width="20" height="20" rx="3" fill="#FFFFFF" stroke="#DDDDDD" stroke-width="1" />
    <rect x="25" y="0" width="20" height="20" rx="3" fill="#FFFFFF" stroke="#DDDDDD" stroke-width="1" />
    <rect x="50" y="0" width="20" height="20" rx="3" fill="#FFFFFF" stroke="#DDDDDD" stroke-width="1" />
    
    <!-- 第二行 -->
    <rect x="0" y="25" width="20" height="20" rx="3" fill="#FFFFFF" stroke="#DDDDDD" stroke-width="1" />
    <rect x="25" y="25" width="20" height="20" rx="3" fill="#FFC857" stroke="#DDDDDD" stroke-width="1" />
    <rect x="50" y="25" width="20" height="20" rx="3" fill="#FFFFFF" stroke="#DDDDDD" stroke-width="1" />
    
    <!-- 第三行 -->
    <rect x="0" y="50" width="20" height="20" rx="3" fill="#FFFFFF" stroke="#DDDDDD" stroke-width="1" />
    <rect x="25" y="50" width="20" height="20" rx="3" fill="#FFFFFF" stroke="#DDDDDD" stroke-width="1" />
    <rect x="50" y="50" width="20" height="20" rx="3" fill="#FFC857" stroke="#DDDDDD" stroke-width="1" />
  </g>
  
  <!-- 匹配符号：星星 -->
  <g transform="translate(30, 30)">
    <path d="M10,1 L12.5,6.5 L18.5,7 L14,11 L15.5,17 L10,14 L4.5,17 L6,11 L1.5,7 L7.5,6.5 Z" fill="#FF6D6D" />
  </g>
  
  <!-- 匹配符号：星星 -->
  <g transform="translate(55, 55)">
    <path d="M10,1 L12.5,6.5 L18.5,7 L14,11 L15.5,17 L10,14 L4.5,17 L6,11 L1.5,7 L7.5,6.5 Z" fill="#FF6D6D" />
  </g>
  
  <!-- 翻转动画效果 -->
  <g transform="translate(50, 25)">
    <rect x="-10" y="0" width="20" height="20" rx="3" fill="#FFFFFF" stroke="#DDDDDD" stroke-width="1" transform="rotate(15)" />
  </g>
</svg> 